<svg data-v-2cb57da0="" version="1.0" xmlns="http://www.w3.org/2000/svg" xmlns:xlink="http://www.w3.org/1999/xlink" width="100%" height="100%" viewBox="0 0 340.000000 250.000000" preserveAspectRatio="xMidYMid meet" color-interpolation-filters="sRGB" style="margin: auto;"><rect data-v-2cb57da0="" x="0" y="0" width="100%" height="100%" fill="#fff" fill-opacity="1" class="background"></rect> <rect data-v-2cb57da0="" x="0" y="0" width="100%" height="100%" fill="url(#watermark)" fill-opacity="1" class="watermarklayer"></rect> <g data-v-2cb57da0="" fill="#333" class="icon-text-wrapper icon-svg-group iconsvg" transform="translate(47.94000244140625,92.1944694519043)"><g class="iconsvg-imagesvg" transform="translate(0,0)"><g><rect fill="#333" fill-opacity="0" stroke-width="2" x="0" y="0" width="59.99999999999999" height="65.61105765024932" class="image-rect"></rect> <svg x="0" y="0" width="59.99999999999999" height="65.61105765024932" filtersec="colorsb1617766754" class="image-svg-svg primary" style="overflow: visible;"><svg xmlns="http://www.w3.org/2000/svg" viewBox="-0.03696563467383385 0.028457017615437508 91.38286590576172 99.9288330078125"><path d="M8.94 1.34a15.59 15.59 0 0 1 9.36-1c2.81.52 5.24 2.11 7.7 3.5C28 5 30 6.1 32 7.35c-1.21 1.91-2.84 3.49-4.19 5.28a61.16 61.16 0 0 0 3.49 78.73c.36.38.73.91.48 1.44-1.68 1.17-3.57 2-5.31 3-2.46 1.34-4.78 3.07-7.56 3.7A15.43 15.43 0 0 1 7.66 98 15.22 15.22 0 0 1 0 85.08V17.89a26.35 26.35 0 0 1 .28-5.47A15 15 0 0 1 8.94 1.34z" fill="#0079d4"></path><path d="M28.32 45.07A47.67 47.67 0 0 1 44 14.18c4 2.06 7.79 4.53 11.77 6.64 2.72 1.62 5.51 3.09 8.21 4.75-1.5 1.29-3.34 2.1-4.84 3.39a27.33 27.33 0 0 0-9.66 16.7A27 27 0 0 0 60.5 72a31.12 31.12 0 0 1 3.5 2.42c-6.63 3.83-13.27 7.67-20 11.31a47.51 47.51 0 0 1-15.14-27c-.86-4.48-.61-9.1-.54-13.66z" fill="#00a0f9"></path><path d="M74.32 34.91a15.22 15.22 0 0 1 10.21 2.44A14.25 14.25 0 0 1 91 46.84a15.26 15.26 0 0 1-1.78 11 21.25 21.25 0 0 1-3.89 4.42c-1.91 1.8-4.6 2.31-7.09 2.79a15.24 15.24 0 0 1-16.86-11.76 16.4 16.4 0 0 1 .68-9c1.85-5.16 6.99-8.59 12.26-9.38z" fill="#5bd3fb"></path></svg></svg> <!----></g></g> <g transform="translate(67,14.199281692504883)"><g data-gra="path-name" fill-rule="" class="tp-name iconsvg-namesvg" transform="translate(0,0)"><g transform="scale(1)"><g><path d="M13.08-10.84L10.23-10.84 10.23-16.65 3.66-16.65 3.66-0.06 10.23-0.06 10.23-5.57 13.08-5.57 13.08 0.48 10.81 2.75 3.09 2.75 0.82 0.48 0.82-17.19 3.09-19.47 10.81-19.47 13.08-17.19 13.08-10.84ZM17.56 2.79L14.71 2.79 14.71-19.34 17.56-19.34 17.56-12.35 22.52-12.35 24.76-10.08 24.76 2.79 21.95 2.79 21.95-9.54 17.56-9.54 17.56 2.79ZM36.57 2.72L28.7 2.72 26.43 0.45 26.43-4.87 28.7-7.11 33.75-7.11 33.75-9.69 26.55-9.69 26.55-12.47 34.3-12.47 36.57-10.2 36.57 2.72ZM33.75 0.18L33.75-4.57 29.27-4.57 29.27 0.18 33.75 0.18ZM41.17-9.69L41.17 2.79 38.32 2.79 38.32-10.23 40.6-12.5 46.2-12.5 48.44-10.23 48.44 2.79 45.65 2.79 45.65-9.69 41.17-9.69ZM52.92-9.69L52.92 2.79 50.07 2.79 50.07-10.23 52.34-12.5 57.94-12.5 60.18-10.23 60.18 2.79 57.4 2.79 57.4-9.69 52.92-9.69ZM71.87-10.2L71.87-2.91 64.66-2.91 64.66-0.09 71.87-0.09 71.87 2.72 64.06 2.72 61.82 0.45 61.82-10.2 64.06-12.41 69.66-12.41 71.87-10.2ZM64.66-9.63L64.66-5.39 69.05-5.39 69.05-9.63 64.66-9.63ZM73.56 2.75L73.56-19.47 76.35-19.47 76.35 2.75 73.56 2.75ZM90.27-10.84L87.43-10.84 87.43-16.65 80.86-16.65 80.86-0.06 87.43-0.06 87.43-5.57 90.27-5.57 90.27 0.48 88 2.75 80.28 2.75 78.01 0.48 78.01-17.19 80.28-19.47 88-19.47 90.27-17.19 90.27-10.84ZM99.78-12.5L102.02-10.23 102.02 0.48 99.78 2.75 94.18 2.75 91.91 0.48 91.91-10.23 94.18-12.5 99.78-12.5ZM99.23-0.06L99.23-9.69 94.75-9.69 94.75-0.06 99.23-0.06ZM106.5-9.69L106.5 2.79 103.65 2.79 103.65-10.23 105.92-12.5 111.52-12.5 113.76-10.23 113.76 2.79 110.98 2.79 110.98-9.69 106.5-9.69ZM118.24-9.69L118.24 2.79 115.4 2.79 115.4-10.23 117.67-12.5 123.27-12.5 125.51-10.23 125.51 2.79 122.72 2.79 122.72-9.69 118.24-9.69ZM137.19-10.2L137.19-2.91 129.99-2.91 129.99-0.09 137.19-0.09 137.19 2.72 129.38 2.72 127.14 0.45 127.14-10.2 129.38-12.41 134.98-12.41 137.19-10.2ZM129.99-9.63L129.99-5.39 134.38-5.39 134.38-9.63 129.99-9.63ZM138.89-10.14L141.16-12.38 148.94-12.38 148.94-9.57 141.74-9.57 141.74-0.09 148.94-0.09 148.94 2.72 141.16 2.72 138.89 0.45 138.89-10.14ZM155.9-0.06L159.6-0.06 159.6 2.75 155.36 2.75 153.09 0.48 153.09-9.57 150.64-9.57 150.64-12.35 153.09-12.35 153.09-16.07 155.9-16.07 155.9-12.35 159.6-12.35 159.6-9.57 155.9-9.57 155.9-0.06ZM169.13-12.5L171.37-10.23 171.37 0.48 169.13 2.75 163.53 2.75 161.26 0.48 161.26-10.23 163.53-12.5 169.13-12.5ZM168.59-0.06L168.59-9.69 164.11-9.69 164.11-0.06 168.59-0.06ZM175.85-9.57L175.85 2.72 173.01 2.72 173.01-10.14 175.28-12.38 177.94-12.38 177.94-9.57 175.85-9.57Z" transform="translate(-0.8199999928474426, 19.469999313354492)"></path></g> <!----> <!----> <!----> <!----> <!----> <!----> <!----></g></g> <g data-gra="path-slogan" fill-rule="" class="tp-slogan iconsvg-slogansvg" fill="#333" transform="translate(50.52499771118164,28.259998321533203)"><!----> <!----> <g transform="scale(1, 1)"><g transform="scale(1)"><path d="M8.06-6.05L8.06-6.05L6.94-6.05Q6.52-7.78 4.55-7.83L4.55-7.83Q1.83-7.69 1.73-4.36L1.73-4.36Q1.73-0.80 4.59-0.80L4.59-0.80Q6.56-0.84 7.03-3.19L7.03-3.19L8.16-3.19Q7.64 0.05 4.36 0.14L4.36 0.14Q0.61 0 0.52-4.31L0.52-4.31Q0.70-8.63 4.55-8.81L4.55-8.81Q7.59-8.72 8.06-6.05ZM16.31-4.27L16.31-4.27Q16.13-7.64 13.31-7.83L13.31-7.83Q10.45-7.69 10.31-4.27L10.31-4.27Q10.45-0.94 13.31-0.80L13.31-0.80Q16.13-0.98 16.31-4.27ZM17.48-4.27L17.48-4.27Q17.20 0 13.31 0.14L13.31 0.14Q9.38 0 9.09-4.27L9.09-4.27Q9.33-8.72 13.31-8.81L13.31-8.81Q17.20-8.67 17.48-4.27ZM20.25-8.58L24.56-1.64L24.56-8.58L25.69-8.58L25.69 0L24.38 0L20.02-6.94L19.97-6.94L19.97 0L18.84 0L18.84-8.58L20.25-8.58ZM28.88-8.58L33.19-1.64L33.19-8.58L34.31-8.58L34.31 0L33 0L28.64-6.94L28.59-6.94L28.59 0L27.47 0L27.47-8.58L28.88-8.58ZM37.41-1.03L42.56-1.03L42.56 0L36.23 0L36.23-8.58L42.47-8.58L42.47-7.59L37.41-7.59L37.41-4.92L42.09-4.92L42.09-3.89L37.41-3.89L37.41-1.03ZM51.23-6.05L51.23-6.05L50.11-6.05Q49.69-7.78 47.72-7.83L47.72-7.83Q45-7.69 44.91-4.36L44.91-4.36Q44.91-0.80 47.77-0.80L47.77-0.80Q49.73-0.84 50.20-3.19L50.20-3.19L51.33-3.19Q50.81 0.05 47.53 0.14L47.53 0.14Q43.78 0 43.69-4.31L43.69-4.31Q43.88-8.63 47.72-8.81L47.72-8.81Q50.77-8.72 51.23-6.05ZM54.89-7.59L51.98-7.59L51.98-8.58L58.92-8.58L58.92-7.59L56.02-7.59L56.02 0L54.89 0L54.89-7.59ZM66.75-4.27L66.75-4.27Q66.56-7.64 63.75-7.83L63.75-7.83Q60.89-7.69 60.75-4.27L60.75-4.27Q60.89-0.94 63.75-0.80L63.75-0.80Q66.56-0.98 66.75-4.27ZM67.92-4.27L67.92-4.27Q67.64 0 63.75 0.14L63.75 0.14Q59.81 0 59.53-4.27L59.53-4.27Q59.77-8.72 63.75-8.81L63.75-8.81Q67.64-8.67 67.92-4.27ZM73.41-3.70L70.59-3.70L70.59 0L69.42 0L69.42-8.58L73.41-8.58Q76.27-8.58 76.27-6.28L76.27-6.28Q76.27-4.88 75.05-4.22L75.05-4.22Q76.08-3.94 76.08-2.58L76.08-2.58L76.17-1.03Q76.13-0.38 76.59-0.19L76.59-0.19L76.59 0L75.14 0Q75-0.61 74.95-2.16L74.95-2.16Q75-3.70 73.41-3.70L73.41-3.70ZM73.50-7.64L70.59-7.64L70.59-4.69L73.31-4.69Q75.05-4.69 75.05-6.19L75.05-6.19Q75.05-7.64 73.50-7.64L73.50-7.64Z" transform="translate(-0.515625, 8.8125)"></path></g></g></g></g></g><defs v-gra="od"></defs></svg>